<?xml version="1.0" encoding="UTF-8" standalone="no"?>
<!-- Created with Inkscape (http://www.inkscape.org/) -->

<svg
   width="413.9534mm"
   height="25.000374mm"
   viewBox="0 0 413.9534 25.000374"
   version="1.1"
   id="svg1"
   xml:space="preserve"
   sodipodi:docname="Intercept-White.svg"
   inkscape:version="1.4.2 (f4327f4, 2025-05-13)"
   xmlns:inkscape="http://www.inkscape.org/namespaces/inkscape"
   xmlns:sodipodi="http://sodipodi.sourceforge.net/DTD/sodipodi-0.dtd"
   xmlns="http://www.w3.org/2000/svg"
   xmlns:svg="http://www.w3.org/2000/svg"><sodipodi:namedview
     id="namedview1"
     pagecolor="#ffffff"
     bordercolor="#000000"
     borderopacity="0.25"
     inkscape:showpageshadow="2"
     inkscape:pageopacity="0.0"
     inkscape:pagecheckerboard="0"
     inkscape:deskcolor="#d1d1d1"
     inkscape:document-units="mm"
     inkscape:zoom="0.87206667"
     inkscape:cx="478.7478"
     inkscape:cy="202.39278"
     inkscape:window-width="3440"
     inkscape:window-height="1369"
     inkscape:window-x="-8"
     inkscape:window-y="-8"
     inkscape:window-maximized="1"
     inkscape:current-layer="layer5" /><defs
     id="defs1" /><g
     id="layer5"
     transform="translate(-159.70893,-64.893665)"><path
       id="path67"
       style="stroke-width:2.64583;paint-order:markers fill stroke;fill:#ffffff"
       d="m 159.70893,64.893782 h 5 v 25.000006 l -5,-5 z" /><path
       id="path68"
       style="fill:#ffffff;fill-opacity:1;stroke:none;stroke-width:0.1;stroke-dasharray:none;stroke-opacity:1;paint-order:markers fill stroke"
       d="m 316.66245,64.893901 v 19.999817 l 4.9997,4.99969 v -9.9999 l 32.95995,1.6e-4 7.04011,7.04011 2.95989,2.95989 2.03989,-2.6e-4 2.2e-4,-4.99974 -9.99988,-9.99988 h -5 l -1.2e-4,-5.00012 -5,-5.000003 z m 4.9997,4.999697 22.95995,7e-5 2.04023,2.04003 v 2.96009 l -25.00018,2e-5 z" /><path
       id="path69"
       style="fill:#ffffff;fill-opacity:1;stroke:none;stroke-width:0.1;stroke-dasharray:none;stroke-opacity:1;paint-order:markers fill stroke"
       d="m 261.66261,64.8941 v 19.999818 l 4.99969,4.99969 45.00007,2.6e-4 v -5 l -45.00007,5e-5 v -5.00021 l 40.00007,1.6e-4 -5,-5 -35.00007,1.4e-4 v -5.00021 l 29.99976,-2.3e-4 -4.99969,-4.999704 z" /><path
       id="path70"
       style="fill:#ffffff;fill-opacity:1;stroke:none;stroke-width:49.9999;stroke-linecap:butt;stroke-linejoin:bevel;stroke-dasharray:none;stroke-dashoffset:0;stroke-opacity:0.488806;paint-order:markers fill stroke"
       d="m 251.66233,64.893783 h -45 l 5,5.000005 h 15 v 15 l 5,5 v -20 h 25 z" /><path
       style="fill:#ffffff;fill-opacity:1;stroke:none;stroke-width:0.1;stroke-dasharray:none;stroke-opacity:1;paint-order:markers fill stroke"
       d="m 174.70893,89.893788 -5,-5 V 64.893783 h 30 l 5,5.000005 15,15 v 5 h -2.0466 l -20,-20 h -7.9534 -5 -10 z"
       id="path72" /><path
       id="path73"
       style="stroke-width:2.64583;paint-order:markers fill stroke;fill:#ffffff"
       d="m 406.66214,69.894038 -5,-5.000001 -24.99981,2.36e-4 h -5.00021 v 19.999815 l 5.00021,4.9997 44.99981,2.5e-4 3e-5,-4.99995 -7.10154,-5e-5 -37.8983,5e-5 v -15.00011" /><path
       id="path74"
       style="fill:#ffffff;fill-opacity:1;stroke:none;stroke-width:0.1;stroke-dasharray:none;stroke-opacity:1;paint-order:markers fill stroke"
       d="m 426.66264,64.894179 v 19.999819 l 4.99969,4.99969 45.00007,2.6e-4 v -5 l -45.00007,5e-5 v -5.00021 l 40.00007,1.6e-4 -5,-5 -35.00007,1.4e-4 v -5.00021 l 29.99976,-2.3e-4 -4.99969,-4.999705 z" /><path
       id="path75"
       style="fill:#ffffff;fill-opacity:1;stroke:none;stroke-width:0.1;stroke-dasharray:none;stroke-opacity:1;paint-order:markers fill stroke"
       d="m 481.66294,64.894483 v 19.999815 l 4.9997,4.99969 v -9.9999 l 34.99969,-3e-4 h 5 v -5 l -5,-5 -5,-5 z m 4.9997,4.999695 27.99969,-3.9e-4 5,5 -32.99969,6e-4 z" /><path
       id="path76"
       style="fill:#ffffff;fill-opacity:1;stroke:none;stroke-width:49.9999;stroke-linecap:butt;stroke-linejoin:bevel;stroke-dasharray:none;stroke-dashoffset:0;stroke-opacity:0.488806;paint-order:markers fill stroke"
       d="m 568.66233,64.893788 h -45 l 5,5.000006 h 15 v 15 l 5,5 v -20 h 25 z" /></g></svg>
