<?xml version="1.0" encoding="UTF-8" standalone="no"?>
<!-- Created with Inkscape (http://www.inkscape.org/) -->

<svg
   width="200mm"
   height="200mm"
   viewBox="0 0 200 200"
   version="1.1"
   id="svg1"
   xml:space="preserve"
   sodipodi:docname="TMS-logo-white.svg"
   inkscape:version="1.4.2 (f4327f4, 2025-05-13)"
   inkscape:export-filename="TMS-neon.svg"
   inkscape:export-xdpi="96"
   inkscape:export-ydpi="96"
   xmlns:inkscape="http://www.inkscape.org/namespaces/inkscape"
   xmlns:sodipodi="http://sodipodi.sourceforge.net/DTD/sodipodi-0.dtd"
   xmlns="http://www.w3.org/2000/svg"
   xmlns:svg="http://www.w3.org/2000/svg"><sodipodi:namedview
     id="namedview1"
     pagecolor="#ffffff"
     bordercolor="#000000"
     borderopacity="0.25"
     inkscape:showpageshadow="2"
     inkscape:pageopacity="0.0"
     inkscape:pagecheckerboard="0"
     inkscape:deskcolor="#d1d1d1"
     inkscape:document-units="mm"
     inkscape:zoom="0.6363961"
     inkscape:cx="566.4711"
     inkscape:cy="565.68543"
     inkscape:window-width="1718"
     inkscape:window-height="1360"
     inkscape:window-x="1713"
     inkscape:window-y="0"
     inkscape:window-maximized="0"
     inkscape:current-layer="layer2"><inkscape:page
       x="0"
       y="0"
       width="200"
       height="200"
       id="page9"
       margin="0"
       bleed="0" /></sodipodi:namedview><defs
     id="defs1"><inkscape:path-effect
       effect="powerclip"
       message=""
       id="path-effect167"
       is_visible="true"
       lpeversion="1"
       inverse="true"
       flatten="false"
       hide_clip="false" /><inkscape:path-effect
       effect="bspline"
       id="path-effect165"
       is_visible="true"
       lpeversion="1.3"
       weight="33.333333"
       steps="2"
       helper_size="0"
       apply_no_weight="true"
       apply_with_weight="true"
       only_selected="false"
       uniform="false" /><inkscape:path-effect
       effect="bspline"
       id="path-effect162"
       is_visible="true"
       lpeversion="1.3"
       weight="33.333333"
       steps="2"
       helper_size="0"
       apply_no_weight="true"
       apply_with_weight="true"
       only_selected="false"
       uniform="false" /><inkscape:path-effect
       effect="bspline"
       id="path-effect161"
       is_visible="true"
       lpeversion="1.3"
       weight="33.333333"
       steps="2"
       helper_size="0"
       apply_no_weight="true"
       apply_with_weight="true"
       only_selected="false"
       uniform="false" /><inkscape:path-effect
       effect="bspline"
       id="path-effect159"
       is_visible="true"
       lpeversion="1.3"
       weight="33.333333"
       steps="2"
       helper_size="0"
       apply_no_weight="true"
       apply_with_weight="true"
       only_selected="false"
       uniform="false" /><inkscape:path-effect
       effect="bspline"
       id="path-effect157"
       is_visible="true"
       lpeversion="1.3"
       weight="33.333333"
       steps="2"
       helper_size="0"
       apply_no_weight="true"
       apply_with_weight="true"
       only_selected="false"
       uniform="false" /><inkscape:path-effect
       effect="bspline"
       id="path-effect155"
       is_visible="true"
       lpeversion="1.3"
       weight="33.333333"
       steps="2"
       helper_size="0"
       apply_no_weight="true"
       apply_with_weight="true"
       only_selected="false"
       uniform="false" /><inkscape:path-effect
       effect="bspline"
       id="path-effect153"
       is_visible="true"
       lpeversion="1.3"
       weight="33.333333"
       steps="2"
       helper_size="0"
       apply_no_weight="true"
       apply_with_weight="true"
       only_selected="false"
       uniform="false" /><inkscape:path-effect
       effect="powerclip"
       message=""
       id="path-effect151"
       is_visible="true"
       lpeversion="1"
       inverse="true"
       flatten="false"
       hide_clip="false" /><inkscape:path-effect
       effect="bspline"
       id="path-effect149"
       is_visible="true"
       lpeversion="1.3"
       weight="33.333333"
       steps="2"
       helper_size="0"
       apply_no_weight="true"
       apply_with_weight="true"
       only_selected="false"
       uniform="false" /><inkscape:path-effect
       effect="powerclip"
       message=""
       id="path-effect136"
       is_visible="true"
       lpeversion="1"
       inverse="true"
       flatten="false"
       hide_clip="false" /><inkscape:path-effect
       effect="bspline"
       id="path-effect134"
       is_visible="true"
       lpeversion="1.3"
       weight="33.333333"
       steps="2"
       helper_size="0"
       apply_no_weight="true"
       apply_with_weight="true"
       only_selected="false"
       uniform="false" /><clipPath
       clipPathUnits="userSpaceOnUse"
       id="clipPath24"><rect
         style="fill:none;stroke:#000000;stroke-width:0.999999;stroke-linecap:butt;stroke-linejoin:bevel;paint-order:stroke markers fill;stop-color:#000000"
         id="rect24"
         width="44.999748"
         height="77.937294"
         x="251.53429"
         y="222.73541" /></clipPath><inkscape:path-effect
       effect="powerclip"
       message=""
       id="path-effect80"
       is_visible="true"
       lpeversion="1"
       inverse="true"
       flatten="false"
       hide_clip="false" /><inkscape:path-effect
       effect="bspline"
       id="path-effect78"
       is_visible="true"
       lpeversion="1.3"
       weight="33.333333"
       steps="2"
       helper_size="0"
       apply_no_weight="true"
       apply_with_weight="true"
       only_selected="false"
       uniform="false" /><inkscape:path-effect
       effect="powerclip"
       message=""
       id="path-effect76"
       is_visible="true"
       lpeversion="1"
       inverse="true"
       flatten="false"
       hide_clip="false" /><inkscape:path-effect
       effect="bspline"
       id="path-effect74"
       is_visible="true"
       lpeversion="1.3"
       weight="33.333333"
       steps="2"
       helper_size="0"
       apply_no_weight="true"
       apply_with_weight="true"
       only_selected="false"
       uniform="false" /><inkscape:path-effect
       effect="powerclip"
       message=""
       id="path-effect71"
       is_visible="true"
       lpeversion="1"
       inverse="true"
       flatten="false"
       hide_clip="false" /><inkscape:path-effect
       effect="bspline"
       id="path-effect70"
       is_visible="true"
       lpeversion="1.3"
       weight="33.333333"
       steps="2"
       helper_size="0"
       apply_no_weight="true"
       apply_with_weight="true"
       only_selected="false"
       uniform="false" /><inkscape:path-effect
       effect="bspline"
       id="path-effect68"
       is_visible="true"
       lpeversion="1.3"
       weight="33.333333"
       steps="2"
       helper_size="0"
       apply_no_weight="true"
       apply_with_weight="true"
       only_selected="false"
       uniform="false" /><inkscape:path-effect
       effect="bspline"
       id="path-effect66"
       is_visible="true"
       lpeversion="1.3"
       weight="33.333333"
       steps="2"
       helper_size="0"
       apply_no_weight="true"
       apply_with_weight="true"
       only_selected="false"
       uniform="false" /><inkscape:path-effect
       effect="bspline"
       id="path-effect64"
       is_visible="true"
       lpeversion="1.3"
       weight="33.333333"
       steps="2"
       helper_size="0"
       apply_no_weight="true"
       apply_with_weight="true"
       only_selected="false"
       uniform="false" /><inkscape:path-effect
       effect="bspline"
       id="path-effect62"
       is_visible="true"
       lpeversion="1.3"
       weight="33.333333"
       steps="2"
       helper_size="0"
       apply_no_weight="true"
       apply_with_weight="true"
       only_selected="false"
       uniform="false" /><inkscape:path-effect
       effect="powerclip"
       message=""
       id="path-effect60"
       is_visible="true"
       lpeversion="1"
       inverse="true"
       flatten="false"
       hide_clip="false" /><inkscape:path-effect
       effect="bspline"
       id="path-effect58"
       is_visible="true"
       lpeversion="1.3"
       weight="33.333333"
       steps="2"
       helper_size="0"
       apply_no_weight="true"
       apply_with_weight="true"
       only_selected="false"
       uniform="false" /><inkscape:path-effect
       effect="bspline"
       id="path-effect49"
       is_visible="true"
       lpeversion="1.3"
       weight="33.333333"
       steps="2"
       helper_size="0"
       apply_no_weight="true"
       apply_with_weight="true"
       only_selected="false"
       uniform="false" /><inkscape:path-effect
       effect="bspline"
       id="path-effect47"
       is_visible="true"
       lpeversion="1.3"
       weight="33.333333"
       steps="2"
       helper_size="0"
       apply_no_weight="true"
       apply_with_weight="true"
       only_selected="false"
       uniform="false" /><inkscape:path-effect
       effect="bspline"
       id="path-effect34"
       is_visible="true"
       lpeversion="1.3"
       weight="33.333333"
       steps="2"
       helper_size="0"
       apply_no_weight="true"
       apply_with_weight="true"
       only_selected="false"
       uniform="false" /><inkscape:path-effect
       effect="bspline"
       id="path-effect33"
       is_visible="true"
       lpeversion="1.3"
       weight="33.333333"
       steps="2"
       helper_size="0"
       apply_no_weight="true"
       apply_with_weight="true"
       only_selected="false"
       uniform="false" /><inkscape:path-effect
       effect="powerclip"
       message=""
       id="path-effect28"
       is_visible="true"
       lpeversion="1"
       inverse="true"
       flatten="false"
       hide_clip="false" /><inkscape:path-effect
       effect="bspline"
       id="path-effect26"
       is_visible="true"
       lpeversion="1.3"
       weight="33.333333"
       steps="2"
       helper_size="0"
       apply_no_weight="true"
       apply_with_weight="true"
       only_selected="false"
       uniform="false" /><inkscape:path-effect
       effect="powerclip"
       message=""
       id="path-effect24"
       is_visible="true"
       lpeversion="1"
       inverse="true"
       flatten="false"
       hide_clip="false" /><inkscape:path-effect
       effect="bspline"
       id="path-effect23"
       is_visible="true"
       lpeversion="1.3"
       weight="33.333333"
       steps="2"
       helper_size="0"
       apply_no_weight="true"
       apply_with_weight="true"
       only_selected="false"
       uniform="false" /><inkscape:path-effect
       effect="bspline"
       id="path-effect21"
       is_visible="true"
       lpeversion="1.3"
       weight="33.333333"
       steps="2"
       helper_size="0"
       apply_no_weight="true"
       apply_with_weight="true"
       only_selected="false"
       uniform="false" /><inkscape:path-effect
       effect="bspline"
       id="path-effect19"
       is_visible="true"
       lpeversion="1.3"
       weight="33.333333"
       steps="2"
       helper_size="0"
       apply_no_weight="true"
       apply_with_weight="true"
       only_selected="false"
       uniform="false" /><inkscape:path-effect
       effect="bspline"
       id="path-effect17"
       is_visible="true"
       lpeversion="1.3"
       weight="33.333333"
       steps="2"
       helper_size="0"
       apply_no_weight="true"
       apply_with_weight="true"
       only_selected="false"
       uniform="false" /><inkscape:path-effect
       effect="bspline"
       id="path-effect15"
       is_visible="true"
       lpeversion="1.3"
       weight="33.333333"
       steps="2"
       helper_size="0"
       apply_no_weight="true"
       apply_with_weight="true"
       only_selected="false"
       uniform="false" /><inkscape:path-effect
       effect="bspline"
       id="path-effect13"
       is_visible="true"
       lpeversion="1.3"
       weight="33.333333"
       steps="2"
       helper_size="0"
       apply_no_weight="true"
       apply_with_weight="true"
       only_selected="false"
       uniform="false" /><inkscape:path-effect
       effect="bspline"
       id="path-effect11"
       is_visible="true"
       lpeversion="1.3"
       weight="33.333333"
       steps="2"
       helper_size="0"
       apply_no_weight="true"
       apply_with_weight="true"
       only_selected="false"
       uniform="false" /><inkscape:path-effect
       effect="bspline"
       id="path-effect8"
       is_visible="true"
       lpeversion="1.3"
       weight="33.333333"
       steps="2"
       helper_size="0"
       apply_no_weight="true"
       apply_with_weight="true"
       only_selected="false"
       uniform="false" /><inkscape:path-effect
       effect="bspline"
       id="path-effect5"
       is_visible="true"
       lpeversion="1.3"
       weight="33.333333"
       steps="2"
       helper_size="0"
       apply_no_weight="true"
       apply_with_weight="true"
       only_selected="false"
       uniform="false" /><inkscape:path-effect
       effect="bspline"
       id="path-effect4"
       is_visible="true"
       lpeversion="1.3"
       weight="33.333333"
       steps="2"
       helper_size="0"
       apply_no_weight="true"
       apply_with_weight="true"
       only_selected="false"
       uniform="false" /><inkscape:path-effect
       effect="bspline"
       id="path-effect3"
       is_visible="true"
       lpeversion="1.3"
       weight="33.333333"
       steps="2"
       helper_size="0"
       apply_no_weight="true"
       apply_with_weight="true"
       only_selected="false"
       uniform="false" /><inkscape:path-effect
       effect="bspline"
       id="path-effect1"
       is_visible="true"
       lpeversion="1.3"
       weight="33.333333"
       steps="2"
       helper_size="0"
       apply_no_weight="true"
       apply_with_weight="true"
       only_selected="false"
       uniform="false" /><clipPath
       clipPathUnits="userSpaceOnUse"
       id="clipPath11"><path
         id="path11"
         style="fill:none;stroke:#ff0000;stroke-width:0.264583;stroke-linecap:butt;stroke-linejoin:miter;stroke-dasharray:none;stroke-dashoffset:0;stroke-opacity:1;paint-order:fill markers stroke"
         d="M 62.300789,3.2392797 C 44.028281,3.5740136 12.26914,10.87606 12.26914,10.87606 c 0,0 -0.28873,39.230054 2.78287,57.964532 1.7726,10.56545 5.00356,21.107408 11.109009,30.015841 6.446361,9.465737 15.391831,16.911767 24.817511,23.271517 4.736759,3.1964 9.597419,6.20191 14.4082,9.28515 10.87002,-7.0067 22.01483,-13.89162 31.13189,-23.1795 9.50797,-9.664184 15.53716,-22.442905 17.87627,-35.73322 3.75616,-20.328878 3.32872,-41.072928 3.43909,-61.661491 C 99.526919,7.1313174 80.57331,2.9045456 62.300789,3.2392797 Z"
         sodipodi:nodetypes="zccccccccz" /></clipPath><inkscape:path-effect
       effect="bspline"
       id="path-effect7"
       is_visible="true"
       lpeversion="1.3"
       weight="33.333333"
       steps="2"
       helper_size="0"
       apply_no_weight="true"
       apply_with_weight="true"
       only_selected="false"
       uniform="false" /><clipPath
       clipPathUnits="userSpaceOnUse"
       id="clipPath11-5"><path
         id="path11-1"
         style="fill:none;stroke:#ff0000;stroke-width:0.264583;stroke-linecap:butt;stroke-linejoin:miter;stroke-dasharray:none;stroke-dashoffset:0;stroke-opacity:1;paint-order:fill markers stroke"
         d="M 62.300789,3.2392797 C 44.028281,3.5740136 12.26914,10.87606 12.26914,10.87606 c 0,0 -0.28873,39.230054 2.78287,57.964532 1.7726,10.56545 5.00356,21.107408 11.109009,30.015841 6.446361,9.465737 15.391831,16.911767 24.817511,23.271517 4.736759,3.1964 9.597419,6.20191 14.4082,9.28515 10.87002,-7.0067 22.01483,-13.89162 31.13189,-23.1795 9.50797,-9.664184 15.53716,-22.442905 17.87627,-35.73322 3.75616,-20.328878 3.32872,-41.072928 3.43909,-61.661491 C 99.526919,7.1313174 80.57331,2.9045456 62.300789,3.2392797 Z"
         sodipodi:nodetypes="zccccccccz" /></clipPath><inkscape:path-effect
       effect="bspline"
       id="path-effect7-7"
       is_visible="true"
       lpeversion="1.3"
       weight="33.333333"
       steps="2"
       helper_size="0"
       apply_no_weight="true"
       apply_with_weight="true"
       only_selected="false"
       uniform="false" /><clipPath
       clipPathUnits="userSpaceOnUse"
       id="clipPath13"><path
         id="path13"
         style="fill:none;stroke:#ff0000;stroke-width:0.161433;stroke-linecap:butt;stroke-linejoin:miter;stroke-dasharray:none;stroke-dashoffset:0;stroke-opacity:1;paint-order:fill markers stroke"
         d="m 68.528708,45.83059 c -11.106448,0.992223 -30.120387,6.806825 -30.120387,6.806825 0,0 1.51714,23.888395 4.194992,35.157903 1.534751,6.353782 3.956066,12.630332 8.056343,17.788662 4.331809,5.4828 10.097454,9.62854 16.108487,13.09243 3.020787,1.74097 6.108744,3.36041 9.169698,5.02932 6.313285,-4.73344 12.799066,-9.40462 17.947038,-15.45077 5.369645,-6.29204 8.487661,-14.329514 9.337771,-22.519115 1.40881,-12.534514 0.25351,-25.141175 -0.56776,-37.676413 C 91.352979,46.592945 79.635165,44.838366 68.528708,45.83059 Z"
         sodipodi:nodetypes="zccccccccz" /></clipPath><inkscape:path-effect
       effect="bspline"
       id="path-effect6"
       is_visible="true"
       lpeversion="1.3"
       weight="33.333333"
       steps="2"
       helper_size="0"
       apply_no_weight="true"
       apply_with_weight="true"
       only_selected="false"
       uniform="false" /><clipPath
       clipPathUnits="userSpaceOnUse"
       id="clipPath11-5-4"><path
         id="path11-1-2"
         style="fill:none;stroke:#ff0000;stroke-width:0.264583;stroke-linecap:butt;stroke-linejoin:miter;stroke-dasharray:none;stroke-dashoffset:0;stroke-opacity:1;paint-order:fill markers stroke"
         d="M 62.300789,3.2392797 C 44.028281,3.5740136 12.26914,10.87606 12.26914,10.87606 c 0,0 -0.28873,39.230054 2.78287,57.964532 1.7726,10.56545 5.00356,21.107408 11.109009,30.015841 6.446361,9.465737 15.391831,16.911767 24.817511,23.271517 4.736759,3.1964 9.597419,6.20191 14.4082,9.28515 10.87002,-7.0067 22.01483,-13.89162 31.13189,-23.1795 9.50797,-9.664184 15.53716,-22.442905 17.87627,-35.73322 3.75616,-20.328878 3.32872,-41.072928 3.43909,-61.661491 C 99.526919,7.1313174 80.57331,2.9045456 62.300789,3.2392797 Z"
         sodipodi:nodetypes="zccccccccz" /></clipPath><inkscape:path-effect
       effect="bspline"
       id="path-effect7-7-3"
       is_visible="true"
       lpeversion="1.3"
       weight="33.333333"
       steps="2"
       helper_size="0"
       apply_no_weight="true"
       apply_with_weight="true"
       only_selected="false"
       uniform="false" /><inkscape:path-effect
       effect="bspline"
       id="path-effect6-6"
       is_visible="true"
       lpeversion="1.3"
       weight="33.333333"
       steps="2"
       helper_size="0"
       apply_no_weight="true"
       apply_with_weight="true"
       only_selected="false"
       uniform="false" /><clipPath
       clipPathUnits="userSpaceOnUse"
       id="clipPath23"><path
         id="path23"
         style="display:none;fill:#950606;fill-opacity:0.600746;stroke:none;stroke-width:6.99999;stroke-dasharray:none;stroke-opacity:1;paint-order:markers fill stroke"
         d="m 29.08213,40.989633 c -7.735806,0.178923 -15.234904,2.656014 -22.1340196,6.032934 -3.3116088,1.657442 -6.58705747,3.384134 -9.8588851,5.118813 0,11.947319 0,23.89464 0,35.841959 6.6968669,-3.38598 13.1323947,-7.340091 20.1658357,-10.019367 4.058722,-1.570199 8.444749,-2.476263 12.82434,-2.491442 6.293972,-0.04121 12.425362,1.89565 18.298233,4.103789 9.252096,3.472979 18.189897,7.737476 27.508066,11.037345 6.081735,2.148536 12.392961,3.885299 18.873917,4.123021 5.327033,0.253019 10.679463,-0.424395 15.805773,-1.878421 7.34514,-2.007273 14.15954,-5.4765 20.96465,-8.815311 0.45192,-0.220952 0.90483,-0.439874 1.356,-0.662313 0,-11.886549 0,-23.773096 0,-35.659644 -7.95383,3.757387 -15.6732,8.147061 -24.11397,10.762305 -3.64998,1.10666 -7.38151,1.754846 -11.184336,1.821442 C 92.493982,60.452579 87.436459,59.347182 82.599208,57.832799 76.341986,55.862128 70.322689,53.202801 64.248798,50.705082 56.266475,47.365503 48.260637,43.901549 39.776147,42.040035 36.264898,41.301904 32.673053,40.907829 29.08213,40.989633 Z" /><path
         id="lpe_path-effect24"
         style="fill:#950606;fill-opacity:0.600746;stroke:none;stroke-width:6.99999;stroke-dasharray:none;stroke-opacity:1;paint-order:markers fill stroke"
         class="powerclip"
         d="M 10.230415,1.1738083 H 119.8321 V 125.90546 H 10.230415 Z M 29.08213,40.989633 c -7.735806,0.178923 -15.234904,2.656014 -22.1340196,6.032934 -3.3116088,1.657442 -6.58705747,3.384134 -9.8588851,5.118813 0,11.947319 0,23.89464 0,35.841959 6.6968669,-3.38598 13.1323947,-7.340091 20.1658357,-10.019367 4.058722,-1.570199 8.444749,-2.476263 12.82434,-2.491442 6.293972,-0.04121 12.425362,1.89565 18.298233,4.103789 9.252096,3.472979 18.189897,7.737476 27.508066,11.037345 6.081735,2.148536 12.392961,3.885299 18.873917,4.123021 5.327033,0.253019 10.679463,-0.424395 15.805773,-1.878421 7.34514,-2.007273 14.15954,-5.4765 20.96465,-8.815311 0.45192,-0.220952 0.90483,-0.439874 1.356,-0.662313 0,-11.886549 0,-23.773096 0,-35.659644 -7.95383,3.757387 -15.6732,8.147061 -24.11397,10.762305 -3.64998,1.10666 -7.38151,1.754846 -11.184336,1.821442 C 92.493982,60.452579 87.436459,59.347182 82.599208,57.832799 76.341986,55.862128 70.322689,53.202801 64.248798,50.705082 56.266475,47.365503 48.260637,43.901549 39.776147,42.040035 36.264898,41.301904 32.673053,40.907829 29.08213,40.989633 Z" /></clipPath><clipPath
       clipPathUnits="userSpaceOnUse"
       id="clipPath30"><path
         style="fill:none;stroke:#000000;stroke-width:4.01133;stroke-linecap:butt;stroke-linejoin:miter;stroke-dasharray:none;stroke-dashoffset:0;stroke-opacity:1;paint-order:fill markers stroke"
         d="m 17.531256,15.14118 c 15.925318,-3.333333 31.850636,-6.6666668 47.683969,-6.6666668 15.833334,10e-8 31.574685,3.3333338 47.316035,6.6666668 0,24.347701 0,48.694909 -7.86205,65.869108 -7.862048,17.174199 -23.585511,27.174002 -39.309292,37.174002 -15.942887,-10 -31.885459,-19.999807 -39.85706,-37.174 C 17.531256,63.836097 17.531256,39.488881 17.531256,15.14118 Z"
         id="path30"
         sodipodi:nodetypes="ccccccc"
         transform="matrix(1.745802,0,0,1.744308,230.72704,20.945071)"
         clip-path="none"
         inkscape:original-d="m 17.531256,15.14118 c 0,0 31.850636,-6.6666668 47.775953,-10 15.74135,3.3333332 47.224051,10 47.224051,10 0,0 0,48.694909 0,73.043102 -15.724099,10.000204 -47.171342,30.000008 -47.171342,30.000008 0,0 -31.885458,-19.999808 -47.828662,-30.000008 0,-24.348185 0,-73.043102 0,-73.043102 z"
         inkscape:path-effect="#path-effect26" /></clipPath><clipPath
       clipPathUnits="userSpaceOnUse"
       id="clipPath71"><path
         id="path71"
         style="display:block;fill:#950606;fill-opacity:0.600746;stroke:none;stroke-width:6.99999;stroke-dasharray:none;stroke-opacity:1;paint-order:markers fill stroke"
         d="M 29.082127,40.989634 C 21.346321,41.168556 13.84723,43.645647 6.9481103,47.022568 3.6365014,48.68001 0.36105278,50.406702 -2.9107731,52.141381 V 87.983339 C 3.7860938,84.59736 10.22162,80.643248 17.255059,77.963971 c 4.058721,-1.570197 8.444747,-2.476262 12.824338,-2.49144 6.293973,-0.04122 12.425362,1.89565 18.298234,4.103789 9.252096,3.472979 18.189897,7.737476 27.508066,11.037343 6.081735,2.148538 11.550758,-31.26648 6.713508,-32.780864 -6.257223,-1.970672 -12.27652,-4.629997 -18.35041,-7.127716 -7.982324,-3.33958 -15.988162,-6.803533 -24.472652,-8.665049 -3.511249,-0.73813 -7.103093,-1.132205 -10.694016,-1.0504 z"
         sodipodi:nodetypes="cccccccccccc" /></clipPath><clipPath
       clipPathUnits="userSpaceOnUse"
       id="clipPath81"><path
         style="fill:none;stroke:#d0ff00;stroke-width:4.60142;stroke-linecap:butt;stroke-linejoin:miter;stroke-dasharray:none;stroke-dashoffset:0;stroke-opacity:1;paint-order:fill markers stroke"
         d="m 17.531256,15.14118 c 15.925318,-3.333333 31.850636,-6.6666668 47.683969,-6.6666668 15.833334,10e-8 31.574685,3.3333338 47.316035,6.6666668 0,24.347701 0,48.694909 -7.86205,65.869108 -7.862048,17.174199 -23.585511,27.174002 -39.309292,37.174002 -15.942887,-10 -31.885459,-19.999807 -39.85706,-37.174 C 17.531256,63.836097 17.531256,39.488881 17.531256,15.14118 Z"
         id="path81"
         sodipodi:nodetypes="ccccccc"
         transform="matrix(1.5212726,0,0,1.5212726,236.82199,24.211586)"
         clip-path="none"
         inkscape:original-d="m 17.531256,15.14118 c 0,0 31.850636,-6.6666668 47.775953,-10 15.74135,3.3333332 47.224051,10 47.224051,10 0,0 0,48.694909 0,73.043102 -15.724099,10.000204 -47.171342,30.000008 -47.171342,30.000008 0,0 -31.885458,-19.999808 -47.828662,-30.000008 0,-24.348185 0,-73.043102 0,-73.043102 z"
         inkscape:path-effect="#path-effect78" /></clipPath><clipPath
       clipPathUnits="userSpaceOnUse"
       id="clipath_lpe_path-effect136"><path
         id="path136"
         style="display:block;fill:#950606;fill-opacity:0.600746;stroke:none;stroke-width:6.99999;stroke-dasharray:none;stroke-opacity:1;paint-order:markers fill stroke"
         d="M 29.082127,40.989634 C 21.346321,41.168556 13.84723,43.645647 6.9481103,47.022568 3.6365014,48.68001 0.36105278,50.406702 -2.9107731,52.141381 V 87.983339 C 3.7860938,84.59736 10.22162,80.643248 17.255059,77.963971 c 4.058721,-1.570197 8.444747,-2.476262 12.824338,-2.49144 6.293973,-0.04122 12.425362,1.89565 18.298234,4.103789 9.252096,3.472979 18.189897,7.737476 27.508066,11.037343 6.081735,2.148538 11.550758,-31.26648 6.713508,-32.780864 -6.257223,-1.970672 -12.27652,-4.629997 -18.35041,-7.127716 -7.982324,-3.33958 -15.988162,-6.803533 -24.472652,-8.665049 -3.511249,-0.73813 -7.103093,-1.132205 -10.694016,-1.0504 z"
         sodipodi:nodetypes="cccccccccccc" /></clipPath><clipPath
       clipPathUnits="userSpaceOnUse"
       id="clipath_lpe_path-effect151"><path
         id="path161"
         style="display:block;fill:#950606;fill-opacity:0.600746;stroke:none;stroke-width:6.99999;stroke-dasharray:none;stroke-opacity:1;paint-order:markers fill stroke"
         d="m 29.08213,40.989633 c -7.735806,0.178923 -15.234904,2.656014 -22.1340196,6.032934 -3.3116088,1.657442 -6.58705747,3.384134 -9.8588851,5.118813 0,11.947319 0,23.89464 0,35.841959 6.6968669,-3.38598 13.1323947,-7.340091 20.1658357,-10.019367 4.058722,-1.570199 8.444749,-2.476263 12.82434,-2.491442 6.293972,-0.04121 12.425362,1.89565 18.298233,4.103789 9.252096,3.472979 18.189897,7.737476 27.508066,11.037345 6.081735,2.148536 12.392961,3.885299 18.873917,4.123021 5.327033,0.253019 10.679463,-0.424395 15.805773,-1.878421 7.34514,-2.007273 14.15954,-5.4765 20.96465,-8.815311 0.45192,-0.220952 0.90483,-0.439874 1.356,-0.662313 0,-11.886549 0,-23.773096 0,-35.659644 -7.95383,3.757387 -15.6732,8.147061 -24.11397,10.762305 -3.64998,1.10666 -7.38151,1.754846 -11.184336,1.821442 C 92.493982,60.452579 87.436459,59.347182 82.599208,57.832799 76.341986,55.862128 70.322689,53.202801 64.248798,50.705082 56.266475,47.365503 48.260637,43.901549 39.776147,42.040035 36.264898,41.301904 32.673053,40.907829 29.08213,40.989633 Z" /></clipPath><clipPath
       clipPathUnits="userSpaceOnUse"
       id="clipath_lpe_path-effect167"><path
         id="path167"
         style="display:block;fill:#950606;fill-opacity:0.600746;stroke:none;stroke-width:6.99999;stroke-dasharray:none;stroke-opacity:1;paint-order:markers fill stroke"
         d="M 29.082127,40.989634 C 21.346321,41.168556 13.84723,43.645647 6.9481103,47.022568 3.6365014,48.68001 0.36105278,50.406702 -2.9107731,52.141381 V 87.983339 C 3.7860938,84.59736 10.22162,80.643248 17.255059,77.963971 c 4.058721,-1.570197 8.444747,-2.476262 12.824338,-2.49144 6.293973,-0.04122 12.425362,1.89565 18.298234,4.103789 9.252096,3.472979 18.189897,7.737476 27.508066,11.037343 6.081735,2.148538 11.550758,-31.26648 6.713508,-32.780864 -6.257223,-1.970672 -12.27652,-4.629997 -18.35041,-7.127716 -7.982324,-3.33958 -15.988162,-6.803533 -24.472652,-8.665049 -3.511249,-0.73813 -7.103093,-1.132205 -10.694016,-1.0504 z"
         sodipodi:nodetypes="cccccccccccc" /></clipPath></defs><g
     inkscape:label="Shield"
     inkscape:groupmode="layer"
     id="layer1"
     transform="translate(0,-19.956125)"><path
       style="display:inline;fill:none;stroke:#ffffff;stroke-width:4.60141;stroke-linecap:butt;stroke-linejoin:miter;stroke-dasharray:none;stroke-dashoffset:0;stroke-opacity:1;paint-order:fill markers stroke"
       d="m 17.531256,15.14118 c 15.925318,-3.333333 31.850636,-6.6666668 47.683969,-6.6666668 15.833334,10e-8 31.574685,3.3333338 47.316035,6.6666668 0,24.347701 0,48.694909 -7.86205,65.869108 -7.862048,17.174199 -23.585511,27.174002 -39.309292,37.174002 -15.942887,-10 -31.885459,-19.999807 -39.85706,-37.174 C 17.531256,63.836097 17.531256,39.488881 17.531256,15.14118 Z"
       id="path12"
       sodipodi:nodetypes="ccccccc"
       transform="matrix(1.5212726,0,0,1.5212726,1.0697315,23.295024)"
       clip-path="url(#clipPath23)"
       inkscape:original-d="m 17.531256,15.14118 c 0,0 31.850636,-6.6666668 47.775953,-10 15.74135,3.3333332 47.224051,10 47.224051,10 0,0 0,48.694909 0,73.043102 -15.724099,10.000204 -47.171342,30.000008 -47.171342,30.000008 0,0 -31.885458,-19.999808 -47.828662,-30.000008 0,-24.348185 0,-73.043102 0,-73.043102 z"
       inkscape:path-effect="#path-effect13;#path-effect24" /></g><g
     inkscape:groupmode="layer"
     id="layer2"
     inkscape:label="S-Wave"><g
       id="g29"
       clip-path="url(#clipPath30)"
       transform="translate(-244.25874,-30.193369)"
       style="display:inline;stroke:#ffffff;stroke-opacity:1"><path
         style="fill:none;stroke:#ffffff;stroke-width:5.1248;stroke-dasharray:none;stroke-opacity:1;paint-order:markers fill stroke"
         d="m 47.624999,118.76852 c 11.95525,-6.17362 23.91025,-12.3471 40.912525,-9.01524 17.002276,3.33185 39.049986,16.16852 56.738226,19.40238 17.68825,3.23387 31.01514,-3.1356 44.34231,-9.5052"
         id="path5"
         sodipodi:nodetypes="cccc"
         transform="matrix(1.3432066,0,0,1.3889909,184.97303,-47.32747)"
         inkscape:label="Top"
         inkscape:original-d="m 47.624999,118.76852 c 11.955248,-6.17362 23.91025,-12.3471 35.86574,-18.52084 22.049061,12.83745 44.096771,25.67412 66.145831,38.51157 13.32743,-6.36972 26.65432,-12.73919 39.98149,-19.10879"
         inkscape:path-effect="#path-effect5" /><path
         style="fill:none;stroke:#ffffff;stroke-width:5.1248;stroke-dasharray:none;stroke-opacity:1;paint-order:markers fill stroke"
         d="m 47.624999,118.76852 c 11.95525,-6.17362 23.91025,-12.3471 40.912525,-9.01524 17.002276,3.33185 39.049986,16.16852 56.738226,19.40238 17.68825,3.23387 31.01514,-3.1356 44.34231,-9.5052"
         id="path14"
         sodipodi:nodetypes="cccc"
         transform="matrix(1.3432066,0,0,1.3889909,184.97303,-10.776429)"
         inkscape:label="Bottom"
         inkscape:original-d="m 47.624999,118.76852 c 11.955248,-6.17362 23.91025,-12.3471 35.86574,-18.52084 22.049061,12.83745 44.096771,25.67412 66.145831,38.51157 13.32743,-6.36972 26.65432,-12.73919 39.98149,-19.10879"
         inkscape:path-effect="#path-effect15" /><path
         style="fill:none;stroke:#ffffff;stroke-width:5.1248;stroke-linecap:round;stroke-dasharray:none;stroke-dashoffset:0;stroke-opacity:1;paint-order:markers fill stroke"
         d="m 47.624999,118.76852 c 11.95525,-6.17362 23.91025,-12.3471 40.912525,-9.01524 17.002276,3.33185 39.049986,16.16852 56.738226,19.40238 17.68825,3.23387 31.01514,-3.1356 44.34231,-9.5052"
         id="path32"
         sodipodi:nodetypes="cccc"
         transform="matrix(1.3432066,0,0,1.3889909,184.67905,-28.944485)"
         inkscape:label="Middle"
         inkscape:original-d="m 47.624999,118.76852 c 11.955248,-6.17362 23.91025,-12.3471 35.86574,-18.52084 22.049061,12.83745 44.096771,25.67412 66.145831,38.51157 13.32743,-6.36972 26.65432,-12.73919 39.98149,-19.10879"
         inkscape:path-effect="#path-effect33" /><path
         style="fill:none;fill-opacity:1;stroke:#ffffff;stroke-width:7;stroke-linecap:butt;stroke-linejoin:miter;stroke-dasharray:none;stroke-dashoffset:0;stroke-opacity:1;paint-order:markers fill stroke"
         d="m 414.44039,149.08535 c -1.09649,3.13755 -2.19298,6.27509 -3.64564,9.54107 -1.45266,3.26599 -3.26149,6.6604 -5.07032,10.05482"
         id="path47"
         transform="translate(0.52916667)"
         sodipodi:nodetypes="ccc"
         inkscape:label="Right"
         inkscape:original-d="m 414.44039,149.08535 c -1.09649,3.13755 -2.19298,6.27509 -3.28947,9.41264 -1.80883,3.39442 -3.61766,6.78883 -5.42649,10.18325"
         inkscape:path-effect="#path-effect47" /><path
         style="fill:none;fill-opacity:1;stroke:#ffffff;stroke-width:7;stroke-linecap:butt;stroke-linejoin:miter;stroke-dasharray:none;stroke-dashoffset:0;stroke-opacity:1;paint-order:markers fill stroke"
         d="m 404.75892,148.90945 c 0.19803,3.47335 0.39605,6.9467 0.73789,9.90771 0.34183,2.96101 0.82747,5.40968 1.31312,7.85837"
         id="path48"
         transform="translate(-138.12433,-40.743755)"
         sodipodi:nodetypes="ccc"
         inkscape:label="Left"
         inkscape:original-d="m 404.75892,148.90945 c 0.19803,3.47335 0.39605,6.9467 0.59408,10.42005 0.48564,2.44867 0.97128,4.89734 1.45693,7.34603"
         inkscape:path-effect="#path-effect49" /></g><path
       id="path70"
       style="fill:#ffffff;fill-opacity:1;stroke:none;stroke-width:50;stroke-linecap:butt;stroke-linejoin:bevel;stroke-dasharray:none;stroke-dashoffset:0;stroke-opacity:0.488806;paint-order:markers fill stroke"
       inkscape:transform-center-x="-3.0117339"
       inkscape:transform-center-y="2.7475176"
       d="M 130.0834,34.822592 H 66.615035 l 7.052041,7.05205 h 21.156123 v 21.156123 l 7.052041,7.052041 V 41.874642 h 35.2602 z"
       sodipodi:nodetypes="ccccccccc"
       inkscape:label="T" /></g><g
     inkscape:groupmode="layer"
     id="layer5"
     inkscape:label="Letterform" /></svg>
